<svg viewBox="0 0 156 65" fill="none" xmlns="http://www.w3.org/2000/svg"><path d="M5.054 63.327v-5.032h1.645c.546 0 .956.113 1.23.338.276.226.415.56.415 1.003 0 .235-.067.443-.2.625-.134.18-.316.32-.547.418.272.076.486.221.643.436.159.212.238.465.238.76 0 .452-.146.806-.438 1.064-.293.258-.707.388-1.241.388H5.054zm.663-2.354v1.81h1.096c.308 0 .552-.079.729-.238.18-.16.27-.382.27-.663 0-.606-.33-.909-.989-.909H5.717zm0-.532H6.72c.29 0 .522-.073.695-.218a.727.727 0 00.263-.59c0-.277-.08-.478-.242-.602-.161-.127-.407-.19-.736-.19h-.982v1.6zM13.51 61h-2.18v1.784h2.533v.543h-3.196v-5.032h3.162v.546H11.33v1.617h2.18v.543zm5.451-2.16h-2.426v1.507h1.251c.526.007.936.142 1.23.405.296.262.443.62.443 1.071 0 .454-.149.816-.446 1.085-.297.27-.703.41-1.216.419h-1.929v-5.032h3.093v.546zm-2.426 2.053v1.89h1.213c.33 0 .585-.087.767-.262.185-.175.277-.41.277-.705 0-.283-.089-.507-.266-.67-.175-.164-.425-.248-.75-.252h-1.24zm6.255.557h-1.685v-.522h1.686v.522zm5.631.28c-.062.532-.26.943-.59 1.234-.33.288-.77.432-1.317.432-.595 0-1.072-.214-1.431-.64-.357-.426-.536-.996-.536-1.71v-.484c0-.468.083-.88.249-1.234.168-.355.405-.627.712-.816a1.968 1.968 0 011.064-.286c.535 0 .963.15 1.286.449.322.297.51.71.563 1.237h-.667c-.058-.4-.183-.691-.377-.87-.19-.18-.46-.27-.805-.27-.424 0-.757.156-.998.47-.24.313-.36.759-.36 1.337v.487c0 .546.114.98.342 1.303.228.323.547.484.957.484.37 0 .651-.083.847-.249.198-.168.33-.46.394-.874h.667zm5.485-2.89H32.29v4.486h-.66v-4.485h-1.614v-.546h3.891v.546zm3.678 2.375l1.157-2.92h.771l-1.78 4.192c-.12.267-.231.457-.335.57a1.09 1.09 0 01-.366.256 1.364 1.364 0 01-.522.086c-.182 0-.298-.01-.35-.031l.022-.525.314.013c.242 0 .422-.116.54-.349l.086-.18.131-.307-1.714-3.725h.743l1.303 2.92zm8.17 3.345h-.66v-1.233h-3.611v1.237h-.664l-.004-1.78h.412c.216-.244.388-.572.515-.982.129-.412.21-.864.242-1.354l.11-2.153h3.01v4.489h.657l-.007 1.776zm-3.77-1.776h2.453V58.84h-1.703l-.073 1.479c-.03.578-.107 1.071-.232 1.479-.122.408-.27.736-.445.985zm8.941-4.489h.663v5.032h-.663v-3.878l-2.478 3.878h-.667v-5.032h.667v3.877l2.477-3.877zm5.709 5.032v-1.96h-1.161l-1.04 1.96h-.709l1.168-2.143c-.65-.256-.974-.713-.974-1.372 0-.48.157-.851.47-1.116.316-.268.753-.401 1.313-.401h1.6v5.032h-.667zm-2.053-3.515c0 .304.095.548.284.733.191.184.456.277.795.28h.974V58.84h-.943c-.36 0-.635.085-.826.255-.19.171-.284.41-.284.716zm11.931 3.515h-.667V58.84h-2.481v4.486H62.7v-5.032h3.812v5.032zm6.284-2.354c0 .493-.083.924-.25 1.293-.165.366-.4.646-.704.84a1.94 1.94 0 01-1.065.29c-.396 0-.747-.097-1.054-.29a1.955 1.955 0 01-.715-.834 3.016 3.016 0 01-.26-1.254v-.363c0-.484.085-.911.253-1.282.168-.371.405-.654.712-.85a1.915 1.915 0 011.057-.297c.404 0 .758.098 1.065.293.309.194.546.476.712.847.166.369.249.798.249 1.29v.317zm-.66-.325c0-.597-.12-1.054-.36-1.372-.24-.32-.575-.48-1.006-.48-.419 0-.75.16-.992.48-.24.318-.362.76-.37 1.327v.37c0 .578.122 1.033.364 1.365.244.33.58.494 1.005.494.429 0 .76-.155.996-.466.235-.314.356-.762.362-1.345v-.373zm6.552-2.353v5.032h-.663V58.84H76.22l-.09 1.994c-.035.668-.104 1.17-.207 1.507-.102.336-.252.584-.45.742-.198.157-.463.238-.794.242h-.218v-.542l.138-.007c.214-.016.379-.085.494-.207.115-.125.203-.322.263-.591.06-.27.102-.685.128-1.244l.103-2.44h3.1zm6.277 5.032h-.667V61H81.76v2.326h-.663v-5.032h.663v2.163h2.537v-2.163h.667v5.032zm6.252-2.354c0 .493-.083.924-.249 1.293-.166.366-.4.646-.705.84a1.94 1.94 0 01-1.064.29c-.397 0-.748-.097-1.054-.29a1.954 1.954 0 01-.716-.834 3.016 3.016 0 01-.259-1.254v-.363c0-.484.084-.911.252-1.282.169-.371.406-.654.712-.85a1.916 1.916 0 011.058-.297c.403 0 .758.098 1.064.293.309.194.546.476.712.847.166.369.249.798.249 1.29v.317zm-.66-.325c0-.597-.12-1.054-.36-1.372-.24-.32-.574-.48-1.005-.48-.42 0-.75.16-.992.48-.24.318-.363.76-.37 1.327v.37c0 .578.121 1.033.363 1.365.244.33.58.494 1.006.494.428 0 .76-.155.995-.466.235-.314.356-.762.363-1.345v-.373zm5.979-1.808H94.11v4.486h-.667v-5.031h3.093v.546zm5.658 2.133c0 .493-.083.924-.249 1.293a1.888 1.888 0 01-.705.84 1.94 1.94 0 01-1.064.29c-.397 0-.748-.097-1.054-.29a1.955 1.955 0 01-.716-.834 3.016 3.016 0 01-.259-1.254v-.363c0-.484.084-.911.252-1.282.169-.371.406-.654.712-.85a1.915 1.915 0 011.058-.297c.403 0 .758.098 1.064.293.309.194.546.476.712.847.166.369.249.798.249 1.29v.317zm-.66-.325c0-.597-.12-1.054-.36-1.372-.239-.32-.574-.48-1.005-.48-.42 0-.75.16-.992.48-.24.318-.363.76-.37 1.327v.37c0 .578.121 1.033.363 1.365.244.33.58.494 1.006.494.428 0 .76-.155.995-.466.235-.314.356-.762.363-1.345v-.373zm5.838-2.353h.667v4.489h2.481v-4.49h.664v4.476h.529l-.063 1.77h-.598v-1.214h-3.68v-5.031zm9.532 0h.663v5.032h-.663v-3.878l-2.478 3.878h-.667v-5.032h.667v3.877l2.478-3.877zm4.382 2.771h-.611v2.26h-.664v-5.031h.664v2.218h.518l1.759-2.218h.826l-1.921 2.44 2.063 2.592h-.812l-1.822-2.26zm8.25-2.771v5.032h-.663V58.84h-1.804l-.09 1.994c-.035.668-.104 1.17-.208 1.507-.101.336-.251.584-.449.742-.198.157-.463.238-.795.242h-.217v-.542l.138-.007c.214-.016.379-.085.494-.207.115-.125.203-.322.263-.591.06-.27.102-.685.128-1.244l.103-2.44h3.1zm5.25 3.718h-2.108l-.473 1.314h-.685l1.922-5.032h.58l1.925 5.032h-.68l-.481-1.314zm-1.907-.546h1.71l-.857-2.353-.853 2.353z" fill="#000"/><path fill-rule="evenodd" clip-rule="evenodd" d="M140.975 9.926v-.24h-18.514v4.318l18.514-4.078zm-18.514 6.118l18.514-5.609v6.29h-5.737v32.073h-7.04V16.727h-5.737v-.682zm-2.803-1.422V9.685h-16.167v8.498l16.167-3.561zm-16.167 7.169l7.041-2.133v4.89h7.718v7.04h-7.718v10.17h9.126v7.04h-16.167V21.79zm-7.306-1.998V9.685h-7.04v11.659l7.04-1.551zm-7.04 6.344l7.04-2.133v15.512c0 2.885-.87 5.215-2.608 6.988-1.738 1.773-4.085 2.66-7.04 2.66H82.99v-7.04h3.547c.834 0 1.477-.236 1.93-.705.451-.487.677-1.121.677-1.903v-13.38zm-9.75-2.645v-4.159c0-2.903-.868-5.232-2.607-6.988-1.738-1.773-4.085-2.66-7.04-2.66H60.1v18.058l7.397-1.63h-.357v-9.387h2.608c.834 0 1.477.243 1.93.73.451.47.677 1.095.677 1.877v4.172c0 .648-.155 1.195-.465 1.64l7.506-1.653zM60.1 34.935l17.85-5.407a8.622 8.622 0 011.394 2.634c.382 1.096.573 2.295.573 3.599v3.39c0 2.885-.869 5.215-2.607 6.988-1.739 1.773-4.085 2.66-7.04 2.66H60.1V34.934zm-7.497-5.54v-4.847h-7.718v-7.822h9.126v-7.04H37.844v22.96l14.759-3.252zM37.844 41.676l7.04-2.132v2.213h9.127v7.04H37.844v-7.12zm-8.29-7.205l3.04-24.787h-7.197l-2.45 23.886-3.808-23.886h-5.684L9.648 33.571 7.197 9.685H0L3.738 40.16l10.776-2.374 1.81-9.482 1.641 8.722 11.589-2.553zm-9.687 12.651l8.449-2.56-.52 4.235h-7.614l-.315-1.675zm47.273-13.97v8.605h3.13c.834 0 1.477-.235 1.929-.704.452-.487.678-1.121.678-1.903v-3.39c0-.783-.226-1.408-.678-1.878-.452-.486-1.095-.73-1.93-.73H67.14z" fill="#000"/><path d="M152.058 5.322c.573-.191 1.814-.09 2.005.483.191.572-.74 1.399-1.313 1.59l-7.67 2.56-.692-2.073 7.67-2.56z" fill="#000"/><path d="M148.63 14.07l3.083-7.02-3.215 1.073-.582 6.185.714-.239zm-3.875-11.61l6.682 3.76-3.215 1.074-4.181-4.595.714-.239zm-.151 9.151l1.34-3.212-1.429.477-.228 2.841.317-.106z" fill="#000"/><path d="M143.014 6.843l3 1.764-1.429.477-1.889-2.135.318-.106z" fill="#000"/></svg>